<svg xmlns="http://www.w3.org/2000/svg" version="1.1" xmlns:xlink="http://www.w3.org/1999/xlink" xmlns:svgjs="http://svgjs.dev/svgjs" width="1440" height="560" preserveAspectRatio="none" viewBox="0 0 1440 560"><g mask="url(&quot;#SvgjsMask1001&quot;)" fill="none"><rect width="1440" height="560" x="0" y="0" fill="#0e2a47"></rect><path d="M 0,225 C 48,188.4 144,34 240,42 C 336,50 384,251.8 480,265 C 576,278.2 624,124.6 720,108 C 816,91.4 864,196.6 960,182 C 1056,167.4 1104,40.6 1200,35 C 1296,29.4 1392,130.2 1440,154L1440 560L0 560z" fill="#184a7e"></path><path d="M 0,498 C 96,474.4 288,391 480,380 C 672,369 768,438.4 960,443 C 1152,447.6 1344,411 1440,403L1440 560L0 560z" fill="#2264ab"></path></g><defs><mask id="SvgjsMask1001"><rect width="1440" height="560" fill="#ffffff"></rect></mask></defs></svg>